# xmcd CD database file
#
# Track frame offsets:
#	187
#	25390
#	45847
#	62570
#	84945
#	106785
#	127952
#	147397
#	164980
#
# Disc length: 2471 seconds
#
# Revision: 0
# Processed by: cddbd v1.5.1PL2 Copyright (c) Steve Scherf et al.
# Submitted via: CDex 1.51
#
DISCID=7009a509
DTITLE=PLAYERS POLE POSITION - DANCE TO THE CHIRISTMAS CAROL
DYEAR=1989
DGENRE=ロック (日本)
TTITLE0=MEDLEY
TTITLE1=WINTER WONDERLAND
TTITLE2=WHITE CHRISTMAS
TTITLE3=I SAW MAMMY KISSING SANTA CLAUS
TTITLE4=LAST CHRISTMAS
TTITLE5=BLUE CHRISTMAS
TTITLE6=JINGLE BELLS
TTITLE7=SANTA CLAUS IS COMING TO TOWN
TTITLE8=THE FIRST NOEL
EXTD=YEAR: 1989
EXTT0=
EXTT1=
EXTT2=
EXTT3=
EXTT4=
EXTT5=
EXTT6=
EXTT7=
EXTT8=
PLAYORDER=
